<?xml version="1.0"?>
<svg xmlns="http://www.w3.org/2000/svg" xmlns:xlink="http://www.w3.org/1999/xlink" xmlns:svgjs="http://svgjs.com/svgjs" version="1.1" width="512" height="512" x="0" y="0" viewBox="0 0 512 512" style="enable-background:new 0 0 512 512" xml:space="preserve" class=""><g><path xmlns="http://www.w3.org/2000/svg" d="m0 138.5h138.5v-138.5h-138.5zm30-108.5h78.5v78.5h-78.5zm0 0" fill="#909090" data-original="#000000" style=""/><path xmlns="http://www.w3.org/2000/svg" d="m373.5 0v138.5h138.5v-138.5zm108.5 108.5h-78.5v-78.5h78.5zm0 0" fill="#909090" data-original="#000000" style=""/><path xmlns="http://www.w3.org/2000/svg" d="m186.75 138.5h138.5v-138.5h-138.5zm30-108.5h78.5v78.5h-78.5zm0 0" fill="#909090" data-original="#000000" style=""/><path xmlns="http://www.w3.org/2000/svg" d="m0 325.25h138.5v-138.5h-138.5zm30-108.5h78.5v78.5h-78.5zm0 0" fill="#909090" data-original="#000000" style=""/><path xmlns="http://www.w3.org/2000/svg" d="m373.5 325.25h138.5v-138.5h-138.5zm30-108.5h78.5v78.5h-78.5zm0 0" fill="#909090" data-original="#000000" style=""/><path xmlns="http://www.w3.org/2000/svg" d="m186.75 325.25h138.5v-138.5h-138.5zm30-108.5h78.5v78.5h-78.5zm0 0" fill="#909090" data-original="#000000" style=""/><path xmlns="http://www.w3.org/2000/svg" d="m0 512h138.5v-138.5h-138.5zm30-108.5h78.5v78.5h-78.5zm0 0" fill="#909090" data-original="#000000" style=""/><path xmlns="http://www.w3.org/2000/svg" d="m373.5 512h138.5v-138.5h-138.5zm30-108.5h78.5v78.5h-78.5zm0 0" fill="#909090" data-original="#000000" style=""/><path xmlns="http://www.w3.org/2000/svg" d="m186.75 512h138.5v-138.5h-138.5zm30-108.5h78.5v78.5h-78.5zm0 0" fill="#909090" data-original="#000000" style=""/></g></svg>
